PathFileType	4	(X/Y/Z)	C:\Users\dbl\Desktop\20210112(1)\20210112\bx_y_5_1802.trc
DataRate	CameraRate	NumFrames	NumMarkers	Units	OrigDataRate	OrigDataStartFrame	OrigNumFrames
50.00	50.00	       4	43	mm	50.00	359	       478
Frame#	Time	Top.Head			R.Acromium			L.Acromium			Sternum			R.ASIS			L.ASIS			V.Sacral			R.Thigh.Upper			R.Thigh.Front			R.Thigh.Rear			R.Knee.Lat			R.Knee.Med			R.Shank.Upper			R.Shank.Front			R.Shank.Rear			R.Ankle.Lat			R.Midfoot.Lat			R.Toe.Lat			R.Toe.Tip			R.Toe.Med			R.Ankle.Med			R.Midfoot.Sup			R.Heel			L.Thigh.Upper			L.Thigh.Front			L.Thigh.Rear			L.Knee.Lat			L.Knee.Med			L.Shank.Upper			L.Shank.Front			L.Shank.Rear			L.Ankle.Lat			L.Midfoot.Lat			L.Toe.Lat			L.Toe.Tip			L.Toe.Med			L.Ankle.Med			L.Midfoot.Sup			L.Heel			origin1 front left			origin2 front right			origin 3 back right			origin 4 back leftt			
		X1	Y1	Z1	X2	Y2	Z2	X3	Y3	Z3	X4	Y4	Z4	X5	Y5	Z5	X6	Y6	Z6	X7	Y7	Z7	X8	Y8	Z8	X9	Y9	Z9	X10	Y10	Z10	X11	Y11	Z11	X12	Y12	Z12	X13	Y13	Z13	X14	Y14	Z14	X15	Y15	Z15	X16	Y16	Z16	X17	Y17	Z17	X18	Y18	Z18	X19	Y19	Z19	X20	Y20	Z20	X21	Y21	Z21	X22	Y22	Z22	X23	Y23	Z23	X24	Y24	Z24	X25	Y25	Z25	X26	Y26	Z26	X27	Y27	Z27	X28	Y28	Z28	X29	Y29	Z29	X30	Y30	Z30	X31	Y31	Z31	X32	Y32	Z32	X33	Y33	Z33	X34	Y34	Z34	X35	Y35	Z35	X36	Y36	Z36	X37	Y37	Z37	X38	Y38	Z38	X39	Y39	Z39	X40	Y40	Z40	X41	Y41	Z41	X42	Y42	Z42	X43	Y43	Z43	

359	7.160	-325.39520	108.30701	1486.73462	-444.17679	-62.29196	1218.35156	-452.72046	277.99963	1222.14185	-486.36188	95.14939	1189.75842	-767.16577	-7.96126	926.09851	-747.92871	200.04384	930.71472	-963.38696	97.28751	938.36426	-758.30933	-89.60320	789.25311	-672.92102	-32.65951	788.08240	-681.63696	-85.62616	659.25824	-620.75494	-68.22323	584.20978	-578.76343	40.29264	562.93866	-614.30969	-63.78859	537.70056	-571.49042	-20.31795	486.04736	-680.31024	-59.92246	471.87030	-759.81366	-3.68309	208.54294	-667.06207	-69.01210	161.37990	-625.86823	-82.01701	157.10933	-559.79321	-44.55141	160.89331	-601.26349	15.90569	166.81917	-703.90991	77.02911	212.49451	-672.18658	53.57471	156.61765	-788.71094	62.09656	178.96526	-748.75055	283.72665	803.03046	-672.78333	219.19447	799.62775	-691.63354	288.62939	678.83179	-620.86121	264.17261	587.96844	-552.55951	162.93350	554.94385	-596.65277	263.85364	543.96783	-546.14270	221.56068	496.75043	-653.49945	265.22495	481.99670	-761.62524	220.10767	207.20869	-666.54108	298.12009	161.59003	-630.03546	307.41388	161.41763	-560.46869	265.11044	164.55350	-592.91290	224.15936	171.79630	-699.80847	148.71313	207.37561	-672.91687	173.97253	152.24065	-789.57092	166.39500	188.58580	-528.26294	304.25000	146.44609	-520.28180	-60.45560	155.47943	-876.07288	-78.85416	141.18974	-882.63617	296.16019	144.64511	
360	7.180	-332.52310	107.54919	1504.65356	-447.21375	-63.93196	1233.82019	-455.14828	277.72003	1237.04102	-487.67981	94.56628	1196.04260	-763.21228	-8.45079	932.46497	-744.52191	200.05740	934.99280	-959.01727	97.08071	944.36951	-755.52777	-89.59956	793.80115	-670.49908	-32.12547	790.82513	-681.40894	-85.20593	662.36017	-621.95374	-67.31779	586.01251	-579.93750	40.70292	564.92053	-615.94202	-62.69925	538.93994	-573.27588	-19.51364	487.37735	-681.84058	-59.24801	472.53857	-760.18250	-3.75488	208.37057	-667.08228	-69.12081	161.34256	-625.86511	-82.03996	157.08752	-559.85016	-44.59415	160.96928	-601.32349	15.90105	166.85960	-704.02899	77.03358	212.37788	-672.22198	53.54654	156.64270	-788.77655	62.00366	178.85796	-746.44995	282.80527	807.99854	-670.12726	218.25824	802.89954	-691.03241	287.98297	682.61212	-621.92023	263.04428	589.92322	-554.02118	162.08925	556.02179	-598.14221	262.72198	545.12488	-547.56976	220.65785	497.89166	-654.87360	264.40253	482.96414	-761.62201	220.04176	207.28824	-666.49426	298.06351	161.63065	-629.99023	307.39703	161.46811	-560.49231	265.13943	164.53349	-592.90955	224.16853	171.81853	-700.13019	148.53831	207.35654	-672.86792	173.89920	152.23807	-789.53302	166.34938	188.66220	-528.21796	304.36246	146.48615	-518.94629	-66.23739	148.90018	-876.08386	-78.88125	141.15221	-882.62726	296.12610	144.62077	
361	7.200	-339.99789	106.73912	1522.39673	-450.27051	-65.68166	1249.23071	-457.50726	277.49701	1251.98145	-489.05698	93.97587	1202.44446	-758.84875	-9.22067	938.70166	-741.06067	200.06824	939.30316	-954.76935	96.79659	950.42267	-752.84399	-89.59395	798.21875	-668.08179	-31.80271	793.51080	-681.25116	-84.98898	665.37683	-623.22119	-66.58983	587.81647	-581.54224	41.09991	566.56628	-617.67975	-61.83638	540.23871	-575.18982	-18.84592	488.60519	-683.48529	-58.73868	473.22107	-760.48145	-3.78286	208.18015	-667.00983	-69.20104	161.33994	-625.85663	-82.06686	157.05797	-559.89191	-44.63809	161.02901	-601.37048	15.86294	166.91043	-704.04816	77.00465	212.30602	-672.25085	53.50251	156.72711	-788.87714	61.91595	178.76834	-744.21008	281.90121	812.88837	-667.47870	217.46553	806.06628	-690.49457	287.31744	686.36932	-623.15320	262.17050	591.93884	-555.65363	161.29599	557.03943	-599.86444	261.75363	546.27130	-549.24835	219.98967	498.99600	-656.40582	263.76642	483.87305	-761.64990	219.97229	207.32472	-666.46411	298.03079	161.64522	-629.96320	307.40326	161.49733	-560.54272	265.17880	164.51097	-592.91766	224.21964	171.85283	-700.35693	148.45691	207.39337	-672.85944	173.88972	152.22656	-789.52100	166.33881	188.72249	-528.17590	304.42560	146.50491	-518.10901	-70.02509	144.67496	-876.07367	-78.90763	141.12506	-882.60962	296.08521	144.58249	
362	7.220	-347.87024	105.89287	1539.91528	-453.23099	-67.38120	1264.51855	-459.87109	277.24649	1266.92200	-490.49377	93.37837	1208.96338	-754.19336	-10.27662	944.91144	-737.54517	200.07632	943.64380	-950.65765	96.44937	956.48700	-750.25433	-89.62479	802.48492	-665.68396	-31.78390	796.08759	-681.13306	-84.90843	668.20074	-624.57404	-65.97804	589.52771	-583.71716	41.64059	567.68781	-619.57208	-61.22841	541.55786	-577.20227	-18.32995	489.70078	-685.32153	-58.40234	473.91867	-760.68042	-3.79060	208.02658	-666.87439	-69.26521	161.35048	-625.85358	-82.09993	157.02675	-559.92181	-44.66945	161.06433	-601.41168	15.78809	166.97568	-704.02979	76.93498	212.27884	-672.28473	53.42411	156.86665	-789.02887	61.83477	178.69865	-741.98749	281.10770	817.76654	-664.81409	216.84828	809.17493	-690.03735	286.62344	690.08112	-624.56183	261.51450	593.88873	-557.43414	160.56271	558.00812	-601.80426	260.97177	547.42242	-551.16418	219.47856	500.05234	-658.11487	263.24475	484.71762	-761.71259	219.90910	207.31398	-666.45667	298.03873	161.63681	-629.97449	307.42596	161.49898	-560.59558	265.21326	164.50645	-592.93597	224.31848	171.88976	-700.50427	148.48355	207.48390	-672.86505	173.90674	152.22870	-789.54211	166.34549	188.73502	-528.14935	304.44128	146.51224	-517.70819	-72.01575	142.53548	-876.05176	-78.91329	141.12875	-882.59161	296.06241	144.55588	
